<svg xmlns="http://www.w3.org/2000/svg" width="32" height="32" viewBox="0 0 32 32">
  <defs>
    <linearGradient id="g" x1="0" y1="0" x2="1" y2="1">
      <stop offset="0" stop-color="#8B5CF6"/>
      <stop offset="1" stop-color="#6D28D9"/>
    </linearGradient>
  </defs>
  <rect width="32" height="32" rx="7.5" fill="url(#g)"/>
  <g fill="none" stroke="#fff" stroke-width="2" stroke-linecap="round" stroke-linejoin="round">
    <path d="M16 10.5c-1.9-1.2-4-1.7-6.2-1.7-.6 0-1.1.5-1.1 1.1v10.4c0 .6.5 1 1.1 1 2.2 0 4.3.5 6.2 1.7"/>
    <path d="M16 10.5c1.9-1.2 4-1.7 6.2-1.7.6 0 1.1.5 1.1 1.1v10.4c0 .6-.5 1-1.1 1-2.2 0-4.3.5-6.2 1.7"/>
    <path d="M16 10.5V24"/>
  </g>
</svg>
